<svg xmlns="http://www.w3.org/2000/svg" xmlns:xlink="http://www.w3.org/1999/xlink" width="500" zoomAndPan="magnify" viewBox="0 0 375 374.999991" height="500" preserveAspectRatio="xMidYMid meet" version="1.0"><defs><g/><clipPath id="98ee6a645b"><path d="M 21 13.246094 L 354 13.246094 L 354 358.757812 L 21 358.757812 Z M 21 13.246094 " clip-rule="nonzero"/></clipPath></defs><rect x="-37.5" width="450" fill="#ffffff" y="-37.499999" height="449.999989" fill-opacity="1"/><rect x="-37.5" width="450" fill="#a6a6a6" y="-37.499999" height="449.999989" fill-opacity="1"/><path stroke-linecap="butt" transform="matrix(0.641592, -1.603991, 1.603991, 0.641592, 131.528492, 215.664463)" fill="none" stroke-linejoin="miter" d="M 0.00037954 4.499627 L 42.519217 4.500551 " stroke="#000000" stroke-width="9" stroke-opacity="1" stroke-miterlimit="4"/><g clip-path="url(#98ee6a645b)"><path fill="#000000" d="M 105.234375 125.582031 L 22.207031 347.59375 C 20.183594 353.003906 24.1875 358.765625 29.96875 358.765625 L 100.585938 358.765625 C 104.097656 358.765625 107.226562 356.554688 108.394531 353.246094 L 128.117188 297.496094 L 151.980469 226.09375 C 152.542969 224.410156 152.546875 222.589844 151.996094 220.90625 L 120.867188 125.902344 C 118.429688 118.464844 107.976562 118.25 105.234375 125.582031 Z M 222.476562 13.242188 L 159.476562 13.242188 C 153.777344 13.242188 149.78125 18.851562 151.648438 24.222656 L 187.027344 126.09375 L 187.078125 125.953125 L 245.128906 297.496094 L 265.257812 353.296875 C 266.441406 356.574219 269.558594 358.765625 273.050781 358.765625 L 345.425781 358.765625 C 351.207031 358.765625 355.210938 353.003906 353.1875 347.597656 L 230.238281 18.625 C 229.027344 15.386719 225.933594 13.242188 222.476562 13.242188 " fill-opacity="1" fill-rule="nonzero"/></g><g fill="#000000" fill-opacity="1"><g transform="translate(115.903869, 351.041365)"><g><path d="M 3.53125 -33.671875 L 32.265625 -33.671875 L 18.8125 -13.78125 L 18.8125 0 L 17.03125 0 L 17.03125 -13.78125 Z M 3.53125 -33.671875 "/></g></g></g><g fill="#000000" fill-opacity="1"><g transform="translate(151.698853, 351.041365)"><g><path d="M 33.765625 0 L 2.03125 0 L 17.90625 -34.390625 Z M 4.84375 -1.796875 L 30.953125 -1.796875 L 17.90625 -30.140625 Z M 4.84375 -1.796875 "/></g></g></g><g fill="#000000" fill-opacity="1"><g transform="translate(187.493838, 351.041365)"><g><path d="M 17.03125 0 L 17.03125 -25.15625 L 4.3125 -25.15625 L 4.3125 -33.671875 L 31.484375 -33.671875 L 31.484375 -25.15625 L 18.765625 -25.15625 L 18.765625 0 Z M 17.03125 0 "/></g></g></g><g fill="#000000" fill-opacity="1"><g transform="translate(223.288822, 351.041365)"><g><path d="M 3.875 -20.5625 C 3.875 -23.070312 4.5 -25.40625 5.75 -27.5625 C 7.007812 -29.726562 8.710938 -31.441406 10.859375 -32.703125 C 13.003906 -33.960938 15.351562 -34.59375 17.90625 -34.59375 C 20.445312 -34.59375 22.789062 -33.960938 24.9375 -32.703125 C 27.082031 -31.441406 28.78125 -29.726562 30.03125 -27.5625 C 31.289062 -25.40625 31.921875 -23.070312 31.921875 -20.5625 L 31.921875 -13.109375 C 31.921875 -10.597656 31.289062 -8.257812 30.03125 -6.09375 C 28.78125 -3.9375 27.082031 -2.226562 24.9375 -0.96875 C 22.789062 0.289062 20.445312 0.921875 17.90625 0.921875 C 15.351562 0.921875 13.003906 0.289062 10.859375 -0.96875 C 8.710938 -2.226562 7.007812 -3.9375 5.75 -6.09375 C 4.5 -8.257812 3.875 -10.597656 3.875 -13.109375 Z M 12.671875 -13.109375 C 12.671875 -11.554688 13.15625 -10.234375 14.125 -9.140625 C 15.09375 -8.046875 16.351562 -7.5 17.90625 -7.5 C 19.414062 -7.5 20.65625 -8.046875 21.625 -9.140625 C 22.59375 -10.234375 23.078125 -11.554688 23.078125 -13.109375 L 23.078125 -20.609375 C 23.078125 -22.191406 22.59375 -23.515625 21.625 -24.578125 C 20.65625 -25.640625 19.414062 -26.171875 17.90625 -26.171875 C 16.351562 -26.171875 15.09375 -25.640625 14.125 -24.578125 C 13.15625 -23.515625 12.671875 -22.191406 12.671875 -20.609375 Z M 12.671875 -13.109375 "/></g></g></g></svg>